<?xml version="1.0" encoding="UTF-8"?>
<svg width="300px" height="49px" viewBox="0 0 300 49" version="1.1" xmlns="http://www.w3.org/2000/svg" xmlns:xlink="http://www.w3.org/1999/xlink">
    <!-- Generator: Sketch 48.2 (47327) - http://www.bohemiancoding.com/sketch -->
    <title>logo sv blue</title>
    <desc>Created with Sketch.</desc>
    <defs>
        <polygon id="path-1" points="0 48.6 300 48.6 300 0 0 0"></polygon>
    </defs>
    <g id="Page-1" stroke="none" stroke-width="1" fill="none" fill-rule="evenodd">
        <g id="logo-sv-blue">
            <path d="M51,48.5996 C48.4,48.5996 46.2,48.1996 44,47.1996 C42,46.1996 40.2,44.9996 38.6,43.3996 C37,41.8016 36.2,39.9996 35.4,37.9996 C34.6,35.9996 34.2,33.8016 34.2,31.3996 C34.2,28.9996 34.6,26.8016 35.4,24.7996 C36.2,22.7996 37.4,20.9996 38.8,19.3996 C40.2,17.7996 42,16.5996 44.2,15.5996 C46.2,14.5996 48.6,14.1996 51,14.1996 C53.4,14.1996 55.8,14.5996 58,15.5996 C60.2,16.5996 62,17.7996 63.4,19.3996 C64.8,20.9996 66,22.7996 66.8,24.7996 C67.6,26.8016 68,28.9996 68,31.3996 C68,33.5996 67.6,35.8016 66.8,37.9996 C66,39.9996 64.8,41.8016 63.4,43.3996 C61.8,44.9996 60.2,46.1996 58,47.1996 C56,47.9996 53.6,48.5996 51,48.5996 M38.8,31.5996 C38.8,33.3996 39.2,34.9996 39.8,36.3996 C40.4,37.8016 41.4,39.1996 42.4,40.3996 C43.6,41.5996 44.8,42.3996 46.2,42.9996 C47.6,43.5996 49.2,43.9996 51,43.9996 C52.6,43.9996 54.2,43.5996 55.8,42.9996 C57.2,42.3996 58.6,41.3996 59.8,40.3996 C61,39.1996 61.8,37.9996 62.4,36.3996 C63,34.8016 63.4,33.1996 63.4,31.3996 C63.4,29.5996 63,27.9996 62.4,26.5996 C61.8,24.9996 60.8,23.7996 59.8,22.5996 C58.6,21.3996 57.4,20.5996 55.8,19.9996 C54.4,19.3996 52.8,18.9996 51,18.9996 C49.4,18.9996 47.8,19.3996 46.2,19.9996 C44.8,20.5996 43.4,21.5996 42.4,22.7996 C41.2,23.9996 40.4,25.1996 39.8,26.8016 C39.2,28.1996 38.8,29.8016 38.8,31.5996" id="Fill-1" fill="#162B40"></path>
            <path d="M14.4004,48.5996 C11.8004,48.5996 9.2004,48.1996 6.6004,47.3996 C4.0004,46.5996 1.8004,45.3996 0.0004,43.8016 L2.4004,39.9996 C4.4004,41.3996 6.2004,42.5996 8.2004,43.3996 C10.2004,44.1996 12.2004,44.5996 14.2004,44.5996 C16.6004,44.5996 18.4004,44.1996 19.8004,43.1996 C21.2004,42.1996 22.0004,40.9996 22.0004,39.1996 C22.0004,38.3996 21.8004,37.8016 21.4004,37.1996 C21.0004,36.5996 20.4004,36.1996 19.8004,35.8016 C19.0004,35.3996 18.0004,34.9996 17.0004,34.5996 C16.0004,34.1996 14.4004,33.9996 13.0004,33.5996 C11.0004,32.9996 9.4004,32.5996 8.0004,32.1996 C6.6004,31.8016 5.4004,31.1996 4.4004,30.5996 C3.4004,29.9996 2.8004,29.1996 2.4004,28.3996 C2.0004,27.5996 1.8004,26.3996 1.8004,25.1996 C1.8004,23.5996 2.2004,21.9996 2.8004,20.7996 C3.2004,18.7996 4.0004,17.7996 5.2004,16.9996 C6.4004,16.1996 7.6004,15.3996 9.2004,14.9996 C10.8004,14.5996 12.4004,14.3996 14.2004,14.3996 C16.6004,14.3996 19.0004,14.7996 21.2004,15.5996 C23.4004,16.3996 25.2004,17.3996 26.6004,18.7996 L24.0004,21.9996 C22.6004,20.7996 21.0004,19.7996 19.4004,19.1996 C17.6004,18.5996 15.8004,18.3996 14.0004,18.3996 C12.0004,18.3996 10.2004,18.7996 8.8004,19.5996 C7.4004,20.3996 6.6004,21.7996 6.6004,23.7996 C6.6004,24.5996 6.8004,25.1996 7.0004,25.5996 C7.2004,26.1996 7.8004,26.5996 8.4004,26.9996 C9.2004,27.3996 10.0004,27.8016 11.0004,27.9996 C12.0004,28.1996 13.2004,28.5996 14.6004,28.9996 C16.8004,29.5996 18.6004,29.9996 20.2004,30.5996 C21.8004,31.1996 23.2004,31.8016 24.2004,32.3996 C25.2004,33.1996 26.0004,33.9996 26.6004,34.9996 C27.2004,35.9996 27.4004,37.1996 27.4004,38.5996 C27.4004,41.5996 26.2004,44.1996 23.8004,45.9996 C21.6004,47.5996 18.4004,48.5996 14.4004,48.5996" id="Fill-3" fill="#162B40"></path>
            <path d="M77,47.8008 L77,19.2008 L72.6,19.2008 L72.6,15.0008 L77,15.0008 L77,14.2008 C77,10.2008 77.8,7.0008 79.6,4.5988 C81.4,2.2008 83.8,1.2008 87,1.2008 C88.2,1.2008 89.6,1.4008 90.8,1.8008 C92,2.2008 93.2,2.5988 94.2,3.2008 L92.8,7.4008 C92.2,7.0008 91.4,6.5988 90.6,6.4008 C90,6.0008 89,5.8008 88.2,5.8008 C86.4,5.8008 85,6.4008 84,7.8008 C83,9.2008 82.6,11.2008 82.6,13.8008 L82.6,14.5988 L91.4,14.5988 L91.4,19.0008 L82.6,19.0008 L82.6,47.5988 L77,47.5988 L77,47.8008 Z" id="Fill-5" fill="#162B40"></path>
            <path d="M116,46.1992 C115.6,46.4012 115.2,46.5992 114.6,46.8012 C114,46.9992 113.4,47.1992 112.8,47.4012 C112.2,47.5992 111.4,47.8012 110.6,47.9992 C109.8,48.1992 109,48.1992 108,48.1992 C106,48.1992 104.2,47.5992 102.8,46.5992 C101.4,45.4012 100.6,43.8012 100.6,41.4012 L100.6,19.1992 L96.2,19.1992 L96.2,14.9992 L100.6,14.9992 L100.6,3.9992 L106.2,3.9992 L106.2,14.9992 L113.6,14.9992 L113.6,19.4012 L106.2,19.4012 L106.2,39.8012 C106.2,40.9992 106.6,41.9992 107.4,42.4012 C108.2,42.9992 109,43.1992 110,43.1992 C111,43.1992 112,42.9992 113,42.5992 C113.8,42.1992 114.6,41.9992 114.8,41.8012 L116,46.1992 Z" id="Fill-7" fill="#162B40"></path>
            <polygon id="Fill-9" fill="#162B40" points="144.7998 14.7998 136.3998 40.9998 128.1998 14.7998 119.3998 14.7998 131.5998 47.7998 140.5998 47.7998 152.7998 14.7998"></polygon>
            <mask id="mask-2" fill="white">
                <use xlink:href="#path-1"></use>
            </mask>
            <g id="Clip-12"></g>
            <polygon id="Fill-11" fill="#162B40" mask="url(#mask-2)" points="159.4 48 167.8 48 167.8 14.8 159.4 14.8"></polygon>
            <polygon id="Fill-13" fill="#162B40" mask="url(#mask-2)" points="165.2 4 169 4 169 0 165.2 0"></polygon>
            <polygon id="Fill-14" fill="#162B40" mask="url(#mask-2)" points="163.5996 5.4004 163.5996 1.0004 159.3996 1.0004 159.3996 9.6004 167.8016 9.6004 167.8016 5.4004"></polygon>
            <path d="M190,48.5996 C187.2,48.5996 184.6,48.1996 182,47.1996 C179.4,46.3996 177.2,44.9996 175.2,43.3996 L178.4,37.9996 C180.4,39.3996 182.4,40.5996 184.2,41.1996 C186.2,41.9996 188,42.3996 189.8,42.3996 C191.4,42.3996 192.8,41.9996 193.8,41.3996 C194.8,40.8016 195.2,39.8016 195.2,38.5996 C195.2,37.3996 194.6,36.5996 193.6,35.9996 C192.4,35.3996 190.6,34.8016 188,34.1996 C185.8,33.5996 184,32.9996 182.6,32.3996 C181,31.8016 179.8,31.1996 179,30.5996 C178,29.9996 177.4,29.1996 177,28.1996 C176.6,27.1996 176.4,26.1996 176.4,24.9996 C176.4,23.3996 176.8,21.7996 177.4,20.3996 C177.8,19.1996 178.8,17.9996 180,16.9996 C181.2,15.9996 182.6,15.3996 184.2,14.7996 C185.8,14.1996 187.4,13.9996 189.4,13.9996 C191.8,13.9996 194.2,14.3996 196.4,14.9996 C198.6,15.7996 200.6,16.7996 202.4,18.3996 L199,23.5996 C197.4,22.3996 195.8,21.3996 194.2,20.7996 C192.6,20.1996 191,19.9996 189.6,19.9996 C188.2,19.9996 187,20.1996 186,20.7996 C185,21.3996 184.6,22.3996 184.6,23.5996 C184.6,24.1996 184.8,24.5996 185,24.9996 C185.2,25.3996 185.6,25.7996 186,25.9996 C186.4,26.1996 187.2,26.5996 188,26.8016 C188.8,26.9996 189.8,27.3996 191,27.5996 C193.2,28.1996 195.2,28.8016 196.8,29.3996 C198.4,29.9996 199.8,30.5996 200.8,31.3996 C201.8,32.1996 202.6,32.9996 203,33.9996 C203.4,34.9996 203.8,36.1996 203.8,37.5996 C203.8,40.8016 202.6,43.3996 200.2,45.1996 C197.4,47.5996 194.2,48.5996 190,48.5996" id="Fill-15" fill="#162B40" mask="url(#mask-2)"></path>
            <polygon id="Fill-16" fill="#162B40" mask="url(#mask-2)" points="211 9.6 219.4 9.6 219.4 1.2 211 1.2"></polygon>
            <polygon id="Fill-17" fill="#162B40" mask="url(#mask-2)" points="211 48 219.4 48 219.4 14.8 211 14.8"></polygon>
            <path d="M244.4004,48.4004 C241.8004,48.4004 239.4004,48.0004 237.1984,47.0004 C235.0004,46.0004 233.4004,44.8004 231.8004,43.1984 C230.4004,41.6004 229.1984,39.8004 228.4004,37.8004 C227.6004,35.8004 227.1984,33.6004 227.1984,31.4004 C227.1984,29.0004 227.6004,27.0004 228.4004,24.8004 C229.1984,22.8004 230.4004,21.0004 231.8004,19.4004 C233.1984,17.8004 235.0004,16.6004 237.1984,15.6004 C239.4004,14.6004 241.6004,14.2004 244.4004,14.2004 C247.0004,14.2004 249.4004,14.6004 251.4004,15.6004 C253.4004,16.6004 255.1984,17.8004 256.8004,19.4004 C258.4004,21.0004 259.4004,22.8004 260.1984,24.8004 C261.0004,26.8004 261.4004,29.0004 261.4004,31.4004 C261.4004,33.6004 261.0004,35.8004 260.1984,37.8004 C259.4004,39.8004 258.1984,41.6004 256.8004,43.1984 C255.4004,44.8004 253.6004,46.0004 251.4004,47.0004 C249.4004,48.0004 247.0004,48.4004 244.4004,48.4004 M233.4004,31.4004 C233.4004,33.0004 233.6004,34.6004 234.1984,35.8004 C234.8004,37.1984 235.6004,38.1984 236.6004,39.1984 C237.6004,40.1984 238.8004,41.0004 240.0004,41.4004 C241.4004,42.0004 242.8004,42.1984 244.4004,42.1984 C246.0004,42.1984 247.4004,42.0004 248.8004,41.4004 C250.1984,40.8004 251.1984,40.1984 252.1984,39.1984 C253.1984,38.1984 254.0004,37.0004 254.6004,35.6004 C255.1984,34.1984 255.4004,32.8004 255.4004,31.1984 C255.4004,29.6004 255.1984,28.1984 254.6004,26.8004 C254.0004,25.4004 253.1984,24.2004 252.1984,23.2004 C251.1984,22.2004 250.0004,21.4004 248.8004,21.0004 C247.4004,20.4004 246.0004,20.2004 244.4004,20.2004 C242.8004,20.2004 241.4004,20.4004 240.0004,21.0004 C238.6004,21.6004 237.6004,22.4004 236.6004,23.4004 C235.6004,24.4004 234.8004,25.6004 234.1984,27.0004 C233.8004,28.4004 233.4004,29.8004 233.4004,31.4004" id="Fill-18" fill="#162B40" mask="url(#mask-2)"></path>
            <path d="M300,47.8008 L291.6,47.8008 L291.6,32.1988 L291.6,30.5988 C291.6,28.0008 291.8,24.5988 289.6,22.8008 C287.8,21.0008 285,21.4008 282.8,22.5988 C280.6,23.5988 278.8,25.4008 278.2,27.8008 C277.8,29.4008 277.6,31.0008 277.8,32.4008 L277.8,37.0008 L277.8,47.1988 L277.8,47.4008 L277.8,47.5988 L269.4,47.5988 L269.4,14.8008 L277,14.8008 L277,21.0008 C278.2,18.8008 280,17.2008 282.2,16.0008 C284.6,14.8008 287,14.2008 290,14.2008 C292,14.2008 293.8,14.5988 295,15.4008 C296.2,16.2008 297.4,17.2008 298,18.4008 C298.8,19.5988 299.2,21.0008 299.4,22.5988 C299.6,24.2008 299.8,25.8008 299.8,27.4008 L299.8,47.8008 L300,47.8008 Z" id="Fill-19" fill="#162B40" mask="url(#mask-2)"></path>
        </g>
    </g>
</svg>